#CS320 Dodecahedron Submission

o Dodecahedron

#Vertices
v 0.577350 1.235135 -0.577350
v 0.577350 0.080435 -0.577350
v 0.577350 1.235135 0.577350
v 0.577350 0.080435 0.577350
v -0.577350 1.235135 -0.577350
v -0.577350 0.080435 -0.577350
v -0.577350 1.235135 0.577350
v -0.577350 0.080435 0.577350
v 0.356822 0.657785 -0.934172
v -0.356822 0.657785 -0.934172
v 0.356822 0.657785 0.934172
v -0.356822 0.657785 0.934172
v 0.934172 1.014607 0.000000
v 0.934172 0.300963 0.000000
v -0.934172 1.014607 0.000000
v -0.934172 0.300963 0.000000
v 0.000000 1.591957 -0.356822
v 0.000000 1.591957 0.356822
v 0.000000 -0.276387 -0.356822
v 0.000000 -0.276387 0.356822
v 0.000000 0.240010 0.675974
v -0.417775 -0.018189 0.000000
v -0.675974 0.657785 -0.417775
v 0.000000 0.240010 -0.675974
v 0.417775 -0.018189 0.000000
v 0.675974 0.657785 0.417775
v 0.675973 0.657785 -0.417775
v 0.000000 1.075560 -0.675973
v -0.417775 1.333758 0.000000
v 0.000000 1.075560 0.675973
v -0.675974 0.657785 0.417775
v 0.417775 1.333758 0.000000
vn -0.5257 0.8507 -0.0000
vn -0.0000 0.5257 -0.8507
vn 0.5257 -0.8507 -0.0000
vn 0.8507 -0.0000 -0.5257
vn -0.0000 0.5257 0.8507
vn -0.0000 -0.5257 -0.8507
vn -0.8507 -0.0000 0.5257
vn 0.8507 -0.0000 0.5257
vn -0.8507 -0.0000 -0.5257
vn 0.5257 0.8507 -0.0000
vn -0.5257 -0.8507 -0.0000
vn -0.0000 -0.5257 0.8507
vt 0.868394 0.250000
vt 0.927355 0.404363
vt 0.772992 0.361698
vt 0.308961 0.404363
vt 0.250000 0.250000
vt 0.154598 0.361698
vt 0.000236 0.595637
vt 0.059197 0.750000
vt 0.154598 0.638302
vt 0.618158 0.595637
vt 0.559197 0.750000
vt 0.463795 0.638302
vt 0.309433 0.404363
vt 0.368394 0.250000
vt 0.463795 0.361698
vt 0.308961 0.095637
vt 0.154598 0.138302
vt 0.618630 0.904363
vt 0.772992 0.999764
vt 0.772992 0.861698
vt 0.618158 0.904363
vt 0.463795 0.861698
vt 0.772992 0.500236
vt 0.618630 0.595637
vt 0.772992 0.638302
vt 0.927355 0.095637
vt 0.772992 0.138302
vt 0.000236 0.904363
vt 0.154598 0.999764
vt 0.154598 0.861698
vt 0.309433 0.095637
vt 0.463795 0.000236
vt 0.463795 0.138302
vt 0.618158 0.095637
vt 0.559197 0.250000
vt 0.308961 0.904363
vt 0.250000 0.750000
vt 0.677591 0.750000
vt 0.868394 0.750000
vt 0.927355 0.595637
vt 0.154598 0.000236
vt 0.000236 0.095637
vt 0.059197 0.250000
vt 0.308961 0.595637
vt 0.154598 0.500236
vt 0.463795 0.999764
vt 0.309433 0.904363
vt 0.368394 0.750000
vt 0.309433 0.595637
vt 0.463795 0.500236
vt 0.000236 0.404363
vt 0.154598 0.499764
vt 0.772992 0.499764
vt 0.618630 0.404363
vt 0.677591 0.250000
vt 0.618158 0.404363
vt 0.463795 0.499764
vt 0.927355 0.904363
vt 0.618630 0.095637
vt 0.772992 0.000236
s 0
#Triangles and their UVS
f 17/1/1 5/2/1 29/3/1
f 1/4/2 9/5/2 28/6/2
f 4/7/3 20/8/3 25/9/3
f 1/10/4 13/11/4 27/12/4
f 7/13/5 12/14/5 30/15/5
f 9/5/6 2/16/6 24/17/6
f 8/18/7 12/19/7 31/20/7
f 13/11/8 3/21/8 26/22/8
f 10/23/9 6/24/9 23/25/9
f 1/26/10 17/1/10 32/27/10
f 8/28/11 16/29/11 22/30/11
f 8/31/12 20/32/12 21/33/12
f 20/32/12 4/34/12 21/33/12
f 4/34/12 11/35/12 21/33/12
f 11/35/12 12/14/12 21/33/12
f 12/14/12 8/31/12 21/33/12
f 16/29/11 6/36/11 22/30/11
f 6/36/11 19/37/11 22/30/11
f 19/37/11 20/8/11 22/30/11
f 20/8/11 8/28/11 22/30/11
f 6/24/9 16/38/9 23/25/9
f 16/38/9 15/39/9 23/25/9
f 15/39/9 5/40/9 23/25/9
f 5/40/9 10/23/9 23/25/9
f 2/16/6 19/41/6 24/17/6
f 19/41/6 6/42/6 24/17/6
f 6/42/6 10/43/6 24/17/6
f 10/43/6 9/5/6 24/17/6
f 20/8/3 19/37/3 25/9/3
f 19/37/3 2/44/3 25/9/3
f 2/44/3 14/45/3 25/9/3
f 14/45/3 4/7/3 25/9/3
f 3/21/8 11/46/8 26/22/8
f 11/46/8 4/47/8 26/22/8
f 4/47/8 14/48/8 26/22/8
f 14/48/8 13/11/8 26/22/8
f 13/11/4 14/48/4 27/12/4
f 14/48/4 2/49/4 27/12/4
f 2/49/4 9/50/4 27/12/4
f 9/50/4 1/10/4 27/12/4
f 9/5/2 10/43/2 28/6/2
f 10/43/2 5/51/2 28/6/2
f 5/51/2 17/52/2 28/6/2
f 17/52/2 1/4/2 28/6/2
f 5/2/1 15/53/1 29/3/1
f 15/53/1 7/54/1 29/3/1
f 7/54/1 18/55/1 29/3/1
f 18/55/1 17/1/1 29/3/1
f 12/14/5 11/35/5 30/15/5
f 11/35/5 3/56/5 30/15/5
f 3/56/5 18/57/5 30/15/5
f 18/57/5 7/13/5 30/15/5
f 12/19/7 7/58/7 31/20/7
f 7/58/7 15/39/7 31/20/7
f 15/39/7 16/38/7 31/20/7
f 16/38/7 8/18/7 31/20/7
f 17/1/10 18/55/10 32/27/10
f 18/55/10 3/59/10 32/27/10
f 3/59/10 13/60/10 32/27/10
f 13/60/10 1/26/10 32/27/10
